/* XPM */
static char *result[] = {
/* columns rows colors chars-per-pixel */
"50 50 196 2 ",
"   c #0F353B",
".  c #153A3F",
"X  c #193E43",
"o  c #1C4247",
"O  c #1C4348",
"+  c #19464C",
"@  c #1C4D52",
"#  c #125359",
"$  c #214E54",
"%  c #245156",
"&  c #2E575B",
"*  c #275F65",
"=  c #29646A",
"-  c #3C686B",
";  c #286A71",
":  c #326E73",
">  c #2A767D",
",  c #307076",
"<  c #34767C",
"1  c #34797F",
"2  c #497477",
"3  c #2B7E86",
"4  c #367D83",
"5  c #3B7F85",
"6  c #4A7F86",
"7  c #2E8189",
"8  c #2A8087",
"9  c #388086",
"0  c #32858C",
"q  c #38868D",
"w  c #338A93",
"e  c #3A8E95",
"r  c #369199",
"t  c #3C949C",
"y  c #3797A0",
"u  c #3E9CA4",
"i  c #4C8285",
"p  c #418E94",
"a  c #4A8E93",
"s  c #439299",
"d  c #4C969C",
"f  c #58979C",
"g  c #62989A",
"h  c #439CA3",
"j  c #499DA4",
"k  c #589EA2",
"l  c #47A0A7",
"z  c #44A4AC",
"x  c #4BA5AC",
"c  c #4BA8AF",
"v  c #53A3A9",
"b  c #5BA6AB",
"n  c #5FA0A4",
"m  c #4AA9B1",
"M  c #4EAFB8",
"N  c #52AEB5",
"B  c #4DB1BA",
"V  c #53B4BC",
"C  c #5CB5BD",
"Z  c #5BB4BA",
"A  c #63A9AD",
"S  c #6DA6A8",
"D  c #71A7A7",
"F  c #68ACB3",
"G  c #6BB3BB",
"H  c #63B9BF",
"J  c #74BABD",
"K  c #7FB9BE",
"L  c #50B7C0",
"P  c #55BBC3",
"I  c #5ABCC4",
"U  c #57BFC8",
"Y  c #63BCC4",
"T  c #6EBEC2",
"R  c #72B5C3",
"E  c #7AB5C4",
"W  c #59C4CC",
"Q  c #55C3CC",
"!  c #5DCBD3",
"~  c #5FCFD8",
"^  c #5BC7D0",
"/  c #5ED0D9",
"(  c #64C5CC",
")  c #6CC9CF",
"_  c #69C2C8",
"`  c #7CC4C6",
"'  c #72C9CE",
"]  c #62CBD4",
"[  c #6DCBD1",
"{  c #60CFD8",
"}  c #6FCFD9",
"|  c #74CBD0",
" . c #7BCBD4",
".. c #63D2DB",
"X. c #6ED2DA",
"o. c #7CD3D7",
"O. c #73D5DC",
"+. c #77D9DF",
"@. c #7AD4D8",
"#. c #66DBE4",
"$. c #6ADDE5",
"%. c #66DFE9",
"&. c #69DFE9",
"*. c #64D7E0",
"=. c #75DDE5",
"-. c #7DDCE1",
";. c #77DFEB",
":. c #7EDFEC",
">. c #67E0E9",
",. c #69E0E9",
"<. c #71E0E7",
"1. c #79E0E7",
"2. c #73E2EB",
"3. c #7CE4EC",
"4. c #86BBBE",
"5. c #82B5B6",
"6. c #84BCCA",
"7. c #82BFC0",
"8. c #8CCCCD",
"9. c #84C8C9",
"0. c #93CDCC",
"q. c #99D2CF",
"w. c #88C0D0",
"e. c #8CCADA",
"r. c #87CFD2",
"t. c #96CEDD",
"y. c #8BD4D6",
"u. c #81DADE",
"i. c #85D6D9",
"p. c #92D6D7",
"a. c #90D7D8",
"s. c #95DCDC",
"d. c #9CDCDA",
"f. c #9CD9D6",
"g. c #A3DEDF",
"h. c #99CEE0",
"j. c #85DFE3",
"k. c #85DFEC",
"l. c #89DFED",
"z. c #88DEE1",
"x. c #90D7E7",
"c. c #9DDAEC",
"v. c #96D8E4",
"b. c #9BDFF1",
"n. c #A4DBEF",
"m. c #AADAEC",
"M. c #A6DFF3",
"N. c #AFDFF5",
"B. c #B2DFF6",
"V. c #84E1E6",
"C. c #8CE2E5",
"Z. c #83E3ED",
"A. c #8CE1EE",
"S. c #85E8EE",
"D. c #8BEAEF",
"F. c #97E5E6",
"G. c #9EE3E2",
"H. c #91E1EE",
"J. c #9AE7E9",
"K. c #94ECEF",
"L. c #9AECEE",
"P. c #8DEBF0",
"I. c #95E1F0",
"U. c #9CE1F1",
"Y. c #94EDF1",
"T. c #9BEEF2",
"R. c #97F0F3",
"E. c #9CF1F3",
"W. c #A4E4E3",
"Q. c #A7E8E7",
"!. c #ABE4EA",
"~. c #A2ECEC",
"^. c #ABEEED",
"/. c #A9E3E4",
"(. c #A5E1F3",
"). c #ACE2F5",
"_. c #A4EAF4",
"`. c #ACECF6",
"'. c #B2E1F6",
"]. c #B3EAF6",
"[. c #B5E7F8",
"{. c #B7ECF8",
"}. c #B8EEF9",
"|. c #A4F3F4",
" X c #ABF5F5",
".X c #AEF8F7",
"XX c #AFF9F8",
"oX c #B3F5F4",
"OX c #B8F7F6",
"+X c #B2F8F6",
"@X c #B5F4F8",
"#X c #BAF3F9",
"$X c #B3FAF8",
"%X c #BCFDFA",
"&X c #C0FFFC",
"*X c None",
/* pixels */
"O : h V W U B u 7 8 w h P o.~.%X$X|.~.G.G.Q.|.|.|.~.W.d.d.f.d.f.y.| I z w 8 3 > = @ o o O O O *X*X*X",
"; p P ..$...W h w 7 u V X.K. X%X%X%XOX+XOXOX+X$X$X$X+X+XoXoXoXoX XD.@.Y v d s 0 ; + X o o o O *X*X*X",
"j V { $.,.$.^ z r u V | D. X$X%X%X#X#X#X#X#X@X X|.|.@X@X.X|. X@X@X_.L.s.y.` H x 7 @   . X o O O *X*X",
"U ..$.$.,.#.W c j P O.D.|.+X%X%X#X].[.[.[.].'.(.I.Y.(.(.U.P.I.(.].+X X X^.J.+.( d - & % % + O O O O ",
"~ ,.&.#.*.! Y G R  .l.I._..X@X#X[.'.'.B.'.B.N.U.I.l.U.I.I.A.H.U.(.|. X X XE.E.u.` D g a 4 = O . X X ",
"~ ,.,.#.^ V R 6.h.c.b.U.Y.Y.`.[.[.'.B.'.'.'.'.).(.I.l.A.I.b.I.l.D.D.D.D.D.R.|.|.Q.d.y._ c 1 % X o O ",
"U ..*.] I G E h.M.M.M.H.3.k.(.).'.B.'.B.B.'.B.).M.I.:.:.H.b.l.Z.,.,.,.,.2.D.|..X+X XE.V.' v 9 < 1 1 ",
"m B B L R E e.x.H.H.A.:.;.k.b.N.'.'.B.'.'.B.).n.I.l.;.;.:.l.Z.;.,.,.,.>.,.3.D.R.R.R.E.E.C.' Z V M c ",
"w r y b 6.h.c.l.;.;.2.&.2.k.U.N.B.'.B.'.'.B.N.I.Z.&.,.,.2.2.&.&.,.>.,.>.,.,.2.2.3.3.R. X~.V...! ] V ",
"3 w h I e.M.U.Z.&.,.>.,.&.k.M.).'.B.'.B.B.B.).b.:.&.>.>.&.,.,.,.,.>.,.>.,.,.%.%.>.3.R. X^.i.W V V j ",
"3 u L } x.(.b.k.,.>.,.>.&.Z.U.N.'.B.B.'.'.'.N.I.:.,.>.&.,.,.,.,.,.,.,.>.,.,.,.,.>.2.R.+XQ.` v e 9 , ",
"0 j ' l.I.U.I.3.,.%.,.>.&.Z.M.'.B.'.).M.(.M.b.H.2.>.,.,.,.&.,.,.,.,.,.3.S.S.D.S.Z.D._.oXQ.8.D 6 & O ",
"0 A y.L.T.A.3.2.,.,.,.>.,.Z.U.B.'.B.(.b.A.l.Z.:.,.,.,.,.,.,.,.,.>.>.3.D.|.|.|.|.(.(._.].!./.0.D - . ",
"s G d. X|.P.3.,.,.,.,.>.&.:.I.M.N.(.I.:.;.,.,.,.,.,.,.&.,.,.&.2.2.3.S.E.+X%X%X#X].).).'.[.OX/.5.2 + ",
"M  .Q.+X$XE.P.3.,.,.,.,.&.;.A.H.I.H.Z.;.%.>.>.,.,.,.,.,.&.,.:.H.I.T.E..X%X%X#X}.[.'.'.'.[.{.m.4.6 # ",
"( V.|.%X%X$X|.S.2.,.,.,.,.2.;.;.;.;.;.,.,.>.,.,.,.,.,.,.,.2.l.U.).@X$X%X%X#X{.[.'.'.'.'.'.[.m.6.f : ",
"j.T.$X%X&X%X$XE.P.3.,.,.,.,.,.,.>.,.>.,.,.>.,.,.,.%.,.,.>.;.l.(.'.#X#X%X%X#X].'.'.B.'.B.'.B.m.t.4.g ",
"F..X%X%X%X%X%XXX|.P.2.,.>.,.>.>.>.,.>.,.,.,.,.,.,.,.,.%.,.2.H.(.'.[.{.#X%X#X].'.B.'.B.'.'.B.).!.g.7.",
"^.%X%X%X%X%X%X$X|.S.2.,.>.,.,.,.,.>.,.,.,.,.,.,.,.,.,.,.,.,.A.M.'.B.[.{.#X#X[.'.B.B.'.B.B.'.[.{.oXq.",
"OX#X#X}.{.{.`._.P.3.,.>.,.,.,.,.,.,.,.,.&.,.>.,.,.,.>.>.,.;.A.M.B.'.'.[.[.{.'.'.'.'.B.'.'.'.[.#XoXf.",
"%X#X}.[.'.).U.Z.3.,.,.,.,.,.,.,.&.,.,.&.,.,.,.,.,.,.,.>.,.;.H.(.'.B.'.'.'.'.'.B.B.'.'.B.'.B.[.#XoXf.",
"&X%X{.'.M.b.H.2.>.>.,.,.,.>.,.>.,.,.>.,.,.,.>.,.,.,.&.,.>.,.A.M.B.'.B.'.'.B.'.'.'.B.B.'.B.'.[.#XOXf.",
"&X%X{.).b.k.2.,.,.>.,.,.,.,.,.,.,.,.&.,.,.,.&.,.,.>.,.>.>.;.H.M.'.B.'.B.'.'.'.B.B.B.'.B.'.B.[.#XoXd.",
"%X#X`.J.l.2.,.>.,.,.,.,.,.,.,.,.>.,.,.,.>.,.,.,.,.&.,.,.:.Z.H.b.M.).N.'.B.B.B.'.'.'.B.'.B.'.[.#XOXQ.",
"%X@XT.A.;.,.,.,.,.,.,.,.,.,.,.,.,.,.>.,.,.,.>.,.,.>.,.;.A.U.b.A.b.(.N.'.'.'.'.B.B.B.'.N.'.'.[.#X%XoX",
"%X$XY.2.&.,.,.,.,.>.,.>.,.&.,.,.,.&.,.,.,.&.,.,.,.,.&.;.H.b.I.l.H.U.(.).'.[.'.'.'.).N.).).(.).@X%XOX",
"%XXXP.,.%.>.,.,.,.,.,.,.,.,.>.,.>.,.,.,.,.,.,.,.,.,.,.2.Z.H.b.H.I.l.U._.{.{.[.'.'.B.(.b.H.l.T. XoX^.",
"%XXXY.2.%.>.,.,.,.,.,.,.,.,.2.,.,.,.,.&.,.>.,.>.,.%.,.,.,.;.A.b.U.A.Z.E.@X@X[.).N.).U.k.;.2.S.|.oXg.",
"+X.XR.2.%.&.,.>.,.,.>.,.,.2.S.P.Z.,.,.>.>.,.,.,.,.,.,.,.,.,.Z.b.l.k.3.E.$X@X_.U.b.b.Z.;.>.>.3.E.+XW.",
"^. XP.2.%.,.,.,.,.,.,.,.2.S.R.|.Y.;.,.,.,.,.,.,.,.>.,.>.,.,.;.;.3.,.3.E..X XY.Z.:.;.2.&.,.,.3.|.+X~.",
"G.E.P.,.,.,.2.3.S.S.S.S.S.Y.|.|.R.P.3.2.,.,.,.,.,.,.,.,.,.,.>.,.,.,.3.Y.|.T.S.,.,.,.&.&.<.3.D.E.|.E.",
"u.D.3.,.>.,.S.R.|.|.|. X|.E.R.R.R.E.R.3.,.>.,.,.,.>.,.>.,.,.>.>.>.>.,.3.P.S.2.,.,.,.,.,.3.Y.|.E.D.S.",
"] O.2.2.,.2.D. X$X%X%X%X$X.XE.D.E. XE.3.,.,.,.,.,.,.,.,.<.,.,.,.,.,.,.,.<.,.,.,.,.,.>.,.D.|..XR.3.,.",
"B ) V.K.S.3.D..X%X%X&X&X%X$X|.E.E.R.D.3.,.,.,.,.>.,.>.,.>.>.,.>.,.,.,.,.>.,.,.,.,.,.>.,.D..XXXR.3.>.",
"t G s.|.R.S.D. X%X&X%X&X%X%X%X XR.S.3.,.,.,.,.,.,.>.,.,.>.>.,.>.,.,.,.,.>.,.,.,.,.,.2.3.D. XXXR.3.,.",
"0 b y.~.E.R.Y.E..X$X%X&X&X&X&X$XR.3.>.>.,.,.,.,.,.,.,.,.,.,.,.,.,.,.,.,.,.,.,.2.S.D.P.P.Y.|.E.D.2.,.",
"7 v | D.E.|.E.Y.Y. X%X%X%X&X%X$XR.3.>.>.,.,.>.,.,.,.,.>.,.,.,.,.>.,.,.,.,.>.,.3.R.|. X X|.Y.S.3.,.,.",
"8 l W 1.E.+X XD.S.Y. X$X+X$X+X XY.3.>.>.,.,.,.,.>.,.,.,.,.,.,.,.,.,.,.>.>.>.,.3.R.XX$X%X XD.,.>.&.#.",
"8 u Q <.E.$X XD.2.S.Y.Y.Y.R.R.D.S.,.,.>.>.,.,.,.,.>.>.<.,.,.,.>.,.,.,.,.>.>.,.2.S.R. X$XXXD.,.,.%.! ",
"r c ^ <.Y. X|.D.3.3.3.3.2.2.2.2.,.,.,.,.,.,.,.>.,.,.>.>.>.,.,.,.,.>.,.,.>.<.<.2.3.S.E.^.|.D.,.,.#.^ ",
"Z Q / 2.D.R.E.E.R.R.P.S.<.>.>.>.>.,.,.,.,.,.,.,.,.>.,.,.,.,.,.,.,.,.>.>.,.3.D.K.R.K.F.s.a.-.,.,.%.! ",
"+...>.>.2.3.R.|..X.X.XR.3.<.,.>.,.,.,.>.,.,.,.,.,.,.,.,.,.,.>.,.,.,.,.,.2.S.|..X.X^.p.J H ] $.>.%.*.",
"3.<.>.>.>.2.S.E. X.X XE.Y.S.D.S.3.,.>.,.>.>.>.>.>.>.>.>.>.>.>.,.2.3.S.P.D.R.|. X^.d.7.n u L ^ ! ! ^ ",
"3.>.>.>.>.>.2.S.D.D.P.R.|. X.XE.P.2.,.,.,.>.,.,.,.,.,.>.,.,.,.,.3.R.|. X XE.K.C.r.J n e w u c m c c ",
",.,.,.>.,.,.,.2.<.$.=.C.~.^..X.XR.S.3.3.3.3.3.3.3.3.3.S.3.3.3.3.P.|.XX X^.J.-.] M s 9 0 7 0 w w w w ",
"*X,.,.,.,.,.,.,...^ I _ 9.a.F.E.E.E.E.E.E.|.E.E.E.E.E.E.E.E.E.|.E.E.L.F.y.` Y m y 7 3 7 7 7 3 8 3 *X",
"*X*X,.,.>...>.>./ V s s f Z [ 1.K.^.+X+X$XXXXX$X$XXX$X$X+X+X+X.X~.F.+._ b d s e w 7 7 7 7 7 7 *X*X*X",
"*X*X*X>.{ W Q Q V z w 8 8 t B ( i.f.d.d.G.~.|.|. X X|.|. X|.~.G.a.' Q z w 3 8 7 7 7 3 0 7 7 7 *X*X*X",
"*X*X*X*XB z z l u r 7 8 8 w t l b A F S T o.S.S.S.S.S.S.S.V.o.J A v l r 8 8 7 7 7 7 7 *X*X*X*X*X*X*X",
"*X*X*X*X*X0 0 7 0 7 7 7 7 7 7 0 0 q q q j V ] ....{ ] ....] V s 0 0 0 7 8 7 7 7 7 7 7 *X*X*X*X*X*X*X"
};
